<svg xmlns="http://www.w3.org/2000/svg" xmlns:xlink="http://www.w3.org/1999/xlink" width="500" zoomAndPan="magnify" viewBox="0 0 375 374.999991" height="500" preserveAspectRatio="xMidYMid meet" version="1.0"><defs><clipPath id="423b0b2216"><path d="M 74 3 L 119 3 L 119 41 L 74 41 Z M 74 3 " clip-rule="nonzero"/></clipPath><clipPath id="9dd0f014c1"><path d="M -45.34375 124.476562 L 129.25 -40.195312 L 350.011719 193.875 L 175.414062 358.542969 Z M -45.34375 124.476562 " clip-rule="nonzero"/></clipPath><clipPath id="943573d835"><path d="M -45.34375 124.476562 L 129.25 -40.195312 L 350.011719 193.875 L 175.414062 358.542969 Z M -45.34375 124.476562 " clip-rule="nonzero"/></clipPath><clipPath id="0b22074144"><path d="M 0 17 L 229 17 L 229 328 L 0 328 Z M 0 17 " clip-rule="nonzero"/></clipPath><clipPath id="6987c988db"><path d="M -45.34375 124.476562 L 129.25 -40.195312 L 350.011719 193.875 L 175.414062 358.542969 Z M -45.34375 124.476562 " clip-rule="nonzero"/></clipPath><clipPath id="da10d271db"><path d="M -45.34375 124.476562 L 129.25 -40.195312 L 350.011719 193.875 L 175.414062 358.542969 Z M -45.34375 124.476562 " clip-rule="nonzero"/></clipPath><clipPath id="12fbb09b95"><path d="M 75 36 L 95 36 L 95 44 L 75 44 Z M 75 36 " clip-rule="nonzero"/></clipPath><clipPath id="eef5986ae6"><path d="M -45.34375 124.476562 L 129.25 -40.195312 L 350.011719 193.875 L 175.414062 358.542969 Z M -45.34375 124.476562 " clip-rule="nonzero"/></clipPath><clipPath id="f49b69e709"><path d="M -45.34375 124.476562 L 129.25 -40.195312 L 350.011719 193.875 L 175.414062 358.542969 Z M -45.34375 124.476562 " clip-rule="nonzero"/></clipPath><clipPath id="9c8375fd5a"><path d="M 126 9 L 146 9 L 146 83 L 126 83 Z M 126 9 " clip-rule="nonzero"/></clipPath><clipPath id="157683a333"><path d="M -45.34375 124.476562 L 129.25 -40.195312 L 350.011719 193.875 L 175.414062 358.542969 Z M -45.34375 124.476562 " clip-rule="nonzero"/></clipPath><clipPath id="1ffd5fbd43"><path d="M -45.34375 124.476562 L 129.25 -40.195312 L 350.011719 193.875 L 175.414062 358.542969 Z M -45.34375 124.476562 " clip-rule="nonzero"/></clipPath><clipPath id="4a71e810b2"><path d="M 83 73 L 103 73 L 103 102 L 83 102 Z M 83 73 " clip-rule="nonzero"/></clipPath><clipPath id="ef083030f9"><path d="M -45.34375 124.476562 L 129.25 -40.195312 L 350.011719 193.875 L 175.414062 358.542969 Z M -45.34375 124.476562 " clip-rule="nonzero"/></clipPath><clipPath id="01e6a5c237"><path d="M -45.34375 124.476562 L 129.25 -40.195312 L 350.011719 193.875 L 175.414062 358.542969 Z M -45.34375 124.476562 " clip-rule="nonzero"/></clipPath><clipPath id="a36047fee7"><path d="M 119 34 L 127 34 L 127 48 L 119 48 Z M 119 34 " clip-rule="nonzero"/></clipPath><clipPath id="3879fd58c4"><path d="M -45.34375 124.476562 L 129.25 -40.195312 L 350.011719 193.875 L 175.414062 358.542969 Z M -45.34375 124.476562 " clip-rule="nonzero"/></clipPath><clipPath id="446397e905"><path d="M -45.34375 124.476562 L 129.25 -40.195312 L 350.011719 193.875 L 175.414062 358.542969 Z M -45.34375 124.476562 " clip-rule="nonzero"/></clipPath><clipPath id="85788a7699"><path d="M 65 98 L 121 98 L 121 122 L 65 122 Z M 65 98 " clip-rule="nonzero"/></clipPath><clipPath id="ff23a5a440"><path d="M -45.34375 124.476562 L 129.25 -40.195312 L 350.011719 193.875 L 175.414062 358.542969 Z M -45.34375 124.476562 " clip-rule="nonzero"/></clipPath><clipPath id="9634cf629c"><path d="M -45.34375 124.476562 L 129.25 -40.195312 L 350.011719 193.875 L 175.414062 358.542969 Z M -45.34375 124.476562 " clip-rule="nonzero"/></clipPath><clipPath id="17fc63d009"><path d="M 121 42 L 132 42 L 132 71 L 121 71 Z M 121 42 " clip-rule="nonzero"/></clipPath><clipPath id="bfa8765f08"><path d="M -45.34375 124.476562 L 129.25 -40.195312 L 350.011719 193.875 L 175.414062 358.542969 Z M -45.34375 124.476562 " clip-rule="nonzero"/></clipPath><clipPath id="4f7794804b"><path d="M -45.34375 124.476562 L 129.25 -40.195312 L 350.011719 193.875 L 175.414062 358.542969 Z M -45.34375 124.476562 " clip-rule="nonzero"/></clipPath><clipPath id="02c73b0581"><path d="M 139 9 L 177 9 L 177 79 L 139 79 Z M 139 9 " clip-rule="nonzero"/></clipPath><clipPath id="0a6c344274"><path d="M -45.34375 124.476562 L 129.25 -40.195312 L 350.011719 193.875 L 175.414062 358.542969 Z M -45.34375 124.476562 " clip-rule="nonzero"/></clipPath><clipPath id="cc6bec44c1"><path d="M -45.34375 124.476562 L 129.25 -40.195312 L 350.011719 193.875 L 175.414062 358.542969 Z M -45.34375 124.476562 " clip-rule="nonzero"/></clipPath><clipPath id="b0d647adcd"><path d="M 20 156 L 55 156 L 55 160 L 20 160 Z M 20 156 " clip-rule="nonzero"/></clipPath><clipPath id="1d19ff430c"><path d="M -45.34375 124.476562 L 129.25 -40.195312 L 350.011719 193.875 L 175.414062 358.542969 Z M -45.34375 124.476562 " clip-rule="nonzero"/></clipPath><clipPath id="511d83a5dd"><path d="M -45.34375 124.476562 L 129.25 -40.195312 L 350.011719 193.875 L 175.414062 358.542969 Z M -45.34375 124.476562 " clip-rule="nonzero"/></clipPath><clipPath id="ac5cff1408"><path d="M 149 33 L 157 33 L 157 52 L 149 52 Z M 149 33 " clip-rule="nonzero"/></clipPath><clipPath id="3f8ac84ef6"><path d="M -45.34375 124.476562 L 129.25 -40.195312 L 350.011719 193.875 L 175.414062 358.542969 Z M -45.34375 124.476562 " clip-rule="nonzero"/></clipPath><clipPath id="d7c95900c6"><path d="M -45.34375 124.476562 L 129.25 -40.195312 L 350.011719 193.875 L 175.414062 358.542969 Z M -45.34375 124.476562 " clip-rule="nonzero"/></clipPath><clipPath id="b8784f5b01"><path d="M 99 86 L 119 86 L 119 111 L 99 111 Z M 99 86 " clip-rule="nonzero"/></clipPath><clipPath id="4b8cb9b991"><path d="M -45.34375 124.476562 L 129.25 -40.195312 L 350.011719 193.875 L 175.414062 358.542969 Z M -45.34375 124.476562 " clip-rule="nonzero"/></clipPath><clipPath id="a296f5092b"><path d="M -45.34375 124.476562 L 129.25 -40.195312 L 350.011719 193.875 L 175.414062 358.542969 Z M -45.34375 124.476562 " clip-rule="nonzero"/></clipPath><clipPath id="1f1e3d9a2f"><path d="M 162 25 L 182 25 L 182 50 L 162 50 Z M 162 25 " clip-rule="nonzero"/></clipPath><clipPath id="6e6a8bc190"><path d="M -45.34375 124.476562 L 129.25 -40.195312 L 350.011719 193.875 L 175.414062 358.542969 Z M -45.34375 124.476562 " clip-rule="nonzero"/></clipPath><clipPath id="f020f6fd34"><path d="M -45.34375 124.476562 L 129.25 -40.195312 L 350.011719 193.875 L 175.414062 358.542969 Z M -45.34375 124.476562 " clip-rule="nonzero"/></clipPath><clipPath id="4ccdafda83"><path d="M 152 45 L 180 45 L 180 68 L 152 68 Z M 152 45 " clip-rule="nonzero"/></clipPath><clipPath id="c201a139f8"><path d="M -45.34375 124.476562 L 129.25 -40.195312 L 350.011719 193.875 L 175.414062 358.542969 Z M -45.34375 124.476562 " clip-rule="nonzero"/></clipPath><clipPath id="95fe05c366"><path d="M -45.34375 124.476562 L 129.25 -40.195312 L 350.011719 193.875 L 175.414062 358.542969 Z M -45.34375 124.476562 " clip-rule="nonzero"/></clipPath><clipPath id="6c3c6df978"><path d="M 129 89 L 135 89 L 135 98 L 129 98 Z M 129 89 " clip-rule="nonzero"/></clipPath><clipPath id="9589bcb3e9"><path d="M -45.34375 124.476562 L 129.25 -40.195312 L 350.011719 193.875 L 175.414062 358.542969 Z M -45.34375 124.476562 " clip-rule="nonzero"/></clipPath><clipPath id="ca5310b949"><path d="M -45.34375 124.476562 L 129.25 -40.195312 L 350.011719 193.875 L 175.414062 358.542969 Z M -45.34375 124.476562 " clip-rule="nonzero"/></clipPath><clipPath id="800943f36e"><path d="M 161 129 L 177 129 L 177 219 L 161 219 Z M 161 129 " clip-rule="nonzero"/></clipPath><clipPath id="bae3353850"><path d="M -45.34375 124.476562 L 129.25 -40.195312 L 350.011719 193.875 L 175.414062 358.542969 Z M -45.34375 124.476562 " clip-rule="nonzero"/></clipPath><clipPath id="450e5e4aa9"><path d="M -45.34375 124.476562 L 129.25 -40.195312 L 350.011719 193.875 L 175.414062 358.542969 Z M -45.34375 124.476562 " clip-rule="nonzero"/></clipPath></defs><g clip-path="url(#423b0b2216)"><g clip-path="url(#9dd0f014c1)"><g clip-path="url(#943573d835)"><path fill="#6a994e" d="M 118.695312 40.480469 L 117.433594 40.539062 C 117.238281 40.535156 117.050781 40.335938 116.957031 40.234375 C 116.316406 35.558594 117.03125 31.113281 115.121094 26.691406 C 114.574219 25.511719 113.398438 25.863281 112.886719 26.722656 C 112.167969 28.15625 111.527344 30.082031 110.683594 32.386719 C 110.679688 32.578125 110.578125 32.671875 110.480469 32.765625 C 110.378906 32.859375 110.183594 32.855469 110.183594 32.855469 C 110.183594 32.855469 110.089844 32.753906 110.089844 32.753906 C 110.011719 28.871094 110.511719 25.003906 110.726562 21.03125 C 110.769531 19.480469 110.691406 12.199219 107.953125 12.894531 C 106 13.417969 104.015625 18.117188 103.382812 19.84375 C 103.277344 20.132812 103.085938 20.128906 102.796875 20.023438 C 102.796875 20.023438 102.703125 19.921875 102.609375 19.824219 C 102.515625 19.722656 102.515625 19.722656 102.519531 19.527344 C 101.097656 15.023438 100.148438 11.015625 96.859375 7.328125 C 96.484375 6.929688 96.09375 6.917969 95.695312 7.296875 C 95.597656 7.390625 95.492188 7.675781 95.472656 8.257812 C 95.429688 9.8125 95.476562 11.460938 95.625 13.019531 C 95.703125 13.699219 95.507812 13.695312 95.03125 13.390625 C 94.460938 12.984375 93.898438 12.386719 93.339844 11.59375 C 91.933594 9.902344 88.648438 6.019531 86.425781 5.664062 C 86.234375 5.660156 86.132812 5.753906 86.128906 5.949219 C 85.871094 8.074219 86.195312 10.21875 87.105469 12.382812 C 88.195312 14.9375 89.578125 17.402344 90.867188 19.769531 C 91.050781 20.164062 91.238281 20.363281 91.238281 20.363281 C 91.320312 20.851562 91.121094 21.039062 90.449219 20.730469 L 84.695312 18.425781 C 84.601562 18.324219 84.5 18.417969 84.402344 18.515625 C 84.402344 18.515625 84.300781 18.609375 84.394531 18.707031 L 88.628906 26.59375 C 88.628906 26.59375 88.722656 26.695312 88.621094 26.789062 C 88.621094 26.789062 88.523438 26.882812 88.429688 26.785156 L 81.21875 21.136719 C 81.125 21.039062 81.125 21.039062 81.023438 21.132812 L 80.925781 21.226562 C 80.824219 21.320312 80.820312 21.515625 80.914062 21.613281 C 84.113281 25.007812 86.855469 27.515625 88.503906 30.863281 C 88.503906 30.863281 88.597656 30.960938 88.597656 30.960938 C 88.597656 30.960938 88.5 31.054688 88.59375 31.15625 C 88.59375 31.15625 88.492188 31.25 88.492188 31.25 L 84.226562 27.730469 C 83.75 27.421875 83.75 27.421875 83.929688 28.011719 C 84.386719 28.898438 84.941406 29.882812 85.496094 30.871094 C 85.867188 31.464844 85.949219 31.953125 85.84375 32.242188 C 85.730469 32.722656 85.539062 32.714844 85.15625 32.511719 C 83.160156 30.996094 81.078125 29.1875 78.773438 28.34375 C 78.394531 28.140625 77.898438 28.417969 77.601562 28.699219 C 76.484375 30.316406 79.75 34.78125 80.691406 35.777344 C 80.785156 35.878906 80.78125 36.070312 80.585938 36.066406 L 80.101562 36.148438 C 77.414062 35.097656 75.71875 33.304688 74.921875 30.660156 C 74.484375 28.996094 74.8125 27.746094 76.105469 26.714844 C 77.992188 25.3125 80.589844 26.070312 82.417969 26.609375 C 82.417969 26.609375 82.609375 26.613281 82.515625 26.515625 C 82.515625 26.515625 82.515625 26.515625 82.421875 26.414062 C 81.296875 25.023438 77.046875 21.113281 78.566406 18.925781 C 79.375 17.785156 80.910156 18.410156 81.867188 18.828125 C 82.15625 18.933594 82.257812 18.839844 82.167969 18.546875 C 81.925781 16.886719 82.644531 15.453125 84.570312 16.09375 C 84.855469 16.199219 85.339844 16.308594 86.109375 16.527344 C 86.304688 16.53125 86.304688 16.53125 86.207031 16.429688 C 84.738281 13.671875 83.542969 11.402344 83.148438 8.191406 C 82.671875 4.683594 84.394531 2.113281 88.21875 4.164062 C 90.128906 5.191406 91.738281 6.5 93.050781 8.089844 C 93.144531 8.191406 93.144531 8.191406 93.152344 7.996094 C 93.007812 6.246094 93.566406 3.835938 95.878906 4.292969 C 100.230469 4.90625 102.332031 12.730469 102.617188 16.230469 C 102.597656 16.8125 102.792969 16.820312 103.003906 16.242188 C 104.058594 13.363281 107.996094 8.140625 111.367188 12.316406 C 113.429688 14.898438 113.140625 21.394531 112.574219 24.191406 C 112.5625 24.578125 112.65625 24.679688 112.949219 24.589844 C 114.125 24.234375 115.09375 24.265625 115.953125 24.773438 C 117.863281 25.800781 118.414062 30.183594 118.359375 32.125 C 118.667969 34.851562 118.683594 37.664062 118.695312 40.480469 Z M 118.695312 40.480469 " fill-opacity="1" fill-rule="nonzero"/></g></g></g><g clip-path="url(#0b22074144)"><g clip-path="url(#6987c988db)"><g clip-path="url(#da10d271db)"><path fill="#6a994e" d="M 168.769531 60.578125 C 170.71875 60.25 175.402344 59.414062 175.917969 61.757812 C 176.695312 64.984375 172.75 67.199219 170.574219 68.492188 C 170.476562 68.585938 170.375 68.683594 170.570312 68.6875 L 171.726562 68.914062 C 171.824219 69.015625 171.921875 68.921875 172.015625 69.019531 C 172.394531 69.421875 172.476562 69.90625 172.070312 70.476562 C 168.328125 75.707031 162.339844 77.957031 156.378906 79.433594 C 153.738281 80.035156 152.171875 80.570312 151.484375 80.84375 C 145.097656 83.46875 141.335938 89.28125 138.828125 95.417969 C 136.207031 102.039062 134.277344 108.386719 133.125 114.566406 C 133.007812 115.242188 133.078125 116.117188 133.4375 117.097656 C 139.34375 134.15625 145.628906 148.21875 153.558594 165.824219 C 158.117188 175.855469 162.089844 186.066406 165.566406 196.550781 C 165.660156 196.652344 165.753906 196.753906 165.855469 196.65625 L 165.957031 196.5625 C 165.957031 196.5625 166.054688 196.46875 166.054688 196.46875 C 163.929688 186.21875 162.859375 179.683594 162.550781 176.957031 C 161.453125 167.996094 160.546875 159.234375 159.585938 145.621094 C 159.523438 144.355469 159.28125 142.699219 158.761719 140.546875 C 157.410156 133.714844 152.902344 135.136719 147.925781 136.058594 C 146.171875 136.394531 141.988281 136.757812 144.117188 133.617188 C 144.625 132.757812 145.425781 132.007812 146.511719 131.359375 C 146.710938 131.171875 146.8125 131.074219 146.523438 130.96875 C 144.414062 130.132812 141.917969 129.089844 140.121094 127.582031 C 140.121094 127.582031 140.027344 127.480469 140.027344 127.480469 C 139.183594 126.386719 139.496094 125.71875 140.765625 125.464844 C 143.109375 124.949219 145.804688 125.613281 148.015625 126.355469 C 148.398438 126.5625 148.40625 126.367188 148.121094 126.066406 C 145 123.355469 142.179688 120.167969 140.644531 116.335938 C 139.917969 114.570312 141.128906 113.050781 143.054688 113.496094 C 145.941406 114.359375 148.511719 116.082031 151.1875 117.519531 C 151.570312 117.726562 151.667969 117.632812 151.585938 117.144531 C 150.3125 114.195312 149.140625 111.152344 148.554688 107.933594 C 148.472656 107.445312 148.773438 107.160156 149.265625 106.886719 C 150.148438 106.621094 152.152344 107.746094 152.917969 108.15625 C 155.199219 109.777344 157.179688 111.679688 158.863281 113.863281 C 160.453125 115.945312 161.917969 118.902344 163.203125 121.460938 C 163.480469 121.957031 163.578125 121.863281 163.496094 121.375 C 163.339844 116.808594 160.953125 112.078125 158.742188 108.132812 C 158.09375 107.046875 157.640625 105.964844 157.378906 104.890625 C 157.296875 104.402344 157.503906 104.019531 157.894531 103.835938 C 157.894531 103.835938 157.894531 103.835938 157.996094 103.742188 C 158.972656 103.578125 160.035156 103.707031 160.992188 104.121094 C 160.992188 104.121094 161.1875 104.128906 161.09375 104.027344 C 161.09375 104.027344 161.09375 104.027344 161.097656 103.835938 C 159.25 100.675781 156.9375 96.820312 156.949219 93.039062 C 157.058594 89.351562 160.515625 90.617188 162.113281 92.316406 C 162.210938 92.414062 162.304688 92.515625 162.214844 92.222656 C 162.15625 90.957031 161.933594 88.523438 163.304688 88.175781 C 165.753906 87.375 171.117188 93.0625 172.429688 94.65625 C 172.808594 95.054688 172.808594 95.054688 172.726562 94.566406 C 171.648438 88.226562 170.300781 81.199219 173.773438 75.285156 C 175.710938 72.136719 178.265625 77.648438 178.714844 78.921875 C 178.804688 79.214844 178.898438 79.316406 179.007812 78.832031 C 179.332031 77.777344 179.675781 75.941406 180.949219 75.492188 C 181.050781 75.398438 181.242188 75.40625 181.335938 75.503906 C 184.390625 77.339844 184.535156 85.691406 184.15625 88.691406 C 184.132812 89.464844 184.132812 89.464844 184.441406 88.796875 C 185.390625 86.203125 185.757812 83.59375 185.445312 81.058594 C 185.046875 78.039062 184.132812 72.871094 185.828125 71.269531 C 187.527344 69.667969 189.019531 71.652344 189.757812 73.035156 C 189.851562 73.132812 189.945312 73.234375 189.949219 73.039062 C 190.125 70.425781 190.691406 67.625 192.117188 65.339844 C 196.078125 59.339844 198.730469 68.152344 198.84375 70.875 C 198.839844 71.066406 198.941406 70.972656 199.035156 71.074219 C 199.035156 71.074219 199.132812 70.980469 199.132812 70.980469 C 201.242188 68.613281 203.628906 66.550781 206.492188 64.984375 C 208.363281 63.96875 210.875 64.433594 211.488281 66.683594 C 211.660156 67.464844 211.636719 68.238281 211.410156 69.398438 C 210.519531 73.253906 208.316406 75.519531 205.898438 78.554688 C 205.800781 78.648438 205.894531 78.746094 205.988281 78.847656 C 207.441406 78.988281 209.554688 79.628906 209.898438 81.195312 C 210.695312 83.835938 203.199219 87.886719 201.238281 88.605469 C 201.238281 88.605469 201.136719 88.703125 201.136719 88.703125 C 201.136719 88.703125 201.234375 88.800781 201.234375 88.800781 C 203.289062 88.183594 205.226562 88.238281 207.054688 88.777344 C 208.496094 89.304688 210.386719 91.105469 208.78125 92.808594 C 204.28125 97.429688 199.554688 96.417969 194.035156 95.964844 C 193.839844 95.960938 193.839844 95.960938 193.835938 96.15625 C 194.195312 97.136719 193.085938 98.558594 192.769531 99.421875 C 192.667969 99.515625 192.765625 99.617188 192.859375 99.71875 C 192.859375 99.71875 192.953125 99.816406 193.050781 99.722656 C 195.214844 98.816406 201.640625 98.03125 202.320312 101.351562 C 202.570312 102.816406 202.722656 104.179688 201.527344 105.308594 C 197.527344 109.269531 193.1875 111.664062 188.363281 113.949219 C 187.679688 114.21875 187.773438 114.320312 188.546875 114.34375 C 193.40625 114.097656 201.171875 110.734375 205.554688 113.578125 C 208.699219 115.515625 204.652344 117.824219 203.171875 118.652344 C 203.074219 118.746094 203.074219 118.746094 203.167969 118.847656 C 203.167969 118.847656 203.167969 118.847656 203.261719 118.945312 C 205.078125 119.875 210.207031 123.710938 204.648438 124.617188 C 201.429688 125.203125 198.820312 124.832031 195.621094 124.644531 C 195.234375 124.632812 195.230469 124.824219 195.417969 125.027344 C 196.441406 126.511719 197.453125 128.386719 196.425781 130.296875 C 195.296875 132.496094 188.234375 128.40625 187.179688 127.890625 C 184.410156 126.351562 181.957031 127.347656 179.859375 129.324219 C 173.671875 135.160156 173.214844 147.472656 173.46875 155.34375 C 174.472656 177.402344 177.824219 198.949219 181.160156 220.882812 C 181.25 221.175781 181.4375 221.378906 181.628906 221.382812 C 185.890625 221.703125 189.683594 224.722656 190.234375 229.109375 C 190.402344 230.082031 190.085938 230.945312 189.480469 231.707031 C 189.382812 231.800781 189.375 231.992188 189.46875 232.09375 C 191.910156 234.882812 192.019531 237.796875 189.894531 240.742188 C 189.796875 240.835938 189.789062 241.03125 189.882812 241.132812 C 190.277344 244.347656 191.058594 247.378906 192.238281 250.226562 C 199.402344 267.421875 208.445312 283.40625 220.75 297.453125 C 223.097656 300.140625 225.738281 302.742188 228.390625 304.953125 C 228.671875 305.253906 228.855469 305.648438 228.648438 306.027344 C 226.582031 310.433594 219.605469 316.632812 214.171875 313.273438 C 214.078125 313.171875 213.976562 313.265625 213.878906 313.359375 C 212.019531 317.1875 207.839844 320.753906 203.460938 321.113281 C 201.222656 321.335938 199.105469 320.691406 196.917969 319.171875 C 196.824219 319.074219 196.824219 319.074219 196.722656 319.167969 C 192.804688 323.808594 184.960938 326.488281 180.265625 321.113281 C 180.171875 321.011719 180.171875 321.011719 180.070312 321.105469 C 176.246094 325.847656 168.84375 329.996094 163.367188 324.789062 C 163.085938 324.492188 162.902344 324.097656 163.007812 323.808594 C 163.257812 321.875 163.414062 319.84375 163.476562 317.710938 C 163.832031 295.6875 159.230469 273.816406 152.460938 253.042969 C 152.367188 252.941406 152.273438 252.84375 152.273438 252.84375 C 149.875 251.898438 147.863281 250.964844 147.167969 248.226562 C 146.820312 246.859375 146.960938 245.40625 146.609375 244.039062 C 146.441406 243.257812 146.273438 242.28125 146.101562 241.5 C 146.109375 241.304688 146.015625 241.207031 145.820312 241.199219 C 142.773438 239.171875 142.367188 236.539062 145.449219 234.007812 C 145.648438 233.820312 145.65625 233.625 145.660156 233.433594 C 138.515625 212.261719 122.28125 193.246094 105.21875 179.355469 C 99.914062 174.929688 94.164062 172.433594 87.597656 171.269531 C 85.859375 171.023438 82.953125 170.746094 81.558594 172.0625 C 79.867188 173.46875 81.914062 179.839844 82.34375 181.695312 C 83.226562 184.632812 83.40625 188.421875 78.710938 186.441406 C 78.515625 186.433594 78.515625 186.433594 78.511719 186.628906 C 78.660156 188.1875 78.191406 194.285156 75.675781 194.019531 C 74.128906 193.78125 72.449219 191.402344 71.617188 190.117188 C 71.519531 190.015625 71.519531 190.015625 71.421875 190.109375 C 70.136719 194.148438 67.851562 199.324219 64.003906 201.441406 C 61.144531 203.007812 58.796875 200.320312 59.363281 197.519531 C 59.597656 196.167969 59.824219 195.011719 59.960938 193.753906 C 59.972656 193.367188 59.875 193.265625 59.578125 193.546875 C 58.082031 194.960938 56.394531 196.171875 54.710938 197.386719 C 54.117188 197.753906 53.058594 197.433594 52.585938 196.933594 C 47.003906 192.015625 55.023438 183.320312 57.28125 179.117188 C 57.382812 179.023438 57.289062 178.921875 57.195312 178.824219 C 57.195312 178.824219 57.101562 178.722656 57 178.816406 C 54.058594 179.898438 51.121094 180.78125 48.09375 181.371094 C 45.554688 181.878906 45.300781 180.609375 45.75 178.488281 C 45.757812 178.296875 45.757812 178.296875 45.65625 178.390625 C 44.472656 179.128906 41.410156 180.886719 40.582031 179.40625 C 39.472656 177.433594 44.933594 170.019531 46.144531 168.308594 C 46.246094 168.214844 46.152344 168.117188 46.152344 168.117188 C 46.152344 168.117188 46.058594 168.015625 46.058594 168.015625 C 40.894531 168.738281 36.28125 170.449219 33.148438 174.722656 C 31.023438 177.667969 29.597656 179.957031 26.246094 181.800781 C 24.371094 182.8125 23.328125 181.910156 22.796875 180.148438 C 22.089844 177.796875 23.144531 174.914062 24.273438 172.910156 C 24.371094 172.816406 24.277344 172.714844 24.183594 172.617188 C 24.183594 172.617188 24.183594 172.617188 24.089844 172.515625 C 24.089844 172.515625 23.988281 172.609375 23.890625 172.707031 C 22.492188 174.023438 17.199219 179.207031 15.304688 177.597656 C 14.074219 176.496094 14.335938 174.171875 14.480469 172.527344 C 14.585938 172.238281 14.492188 172.140625 14.097656 172.320312 C 10.933594 174.363281 5.5625 175.46875 2.140625 173.039062 C -2.515625 169.699219 7.355469 163.972656 9.617188 162.972656 C 9.71875 162.875 9.71875 162.875 9.621094 162.777344 C 9.621094 162.777344 9.527344 162.675781 9.527344 162.675781 C 6.640625 161.816406 4.066406 160.285156 2.09375 157.996094 C 0.589844 156.398438 2.003906 154.5 3.859375 154.066406 C 6.792969 153.378906 9.496094 153.84375 12.394531 154.316406 C 12.585938 154.324219 12.585938 154.324219 12.492188 154.222656 C 11.351562 153.414062 10.027344 152.210938 9.875 150.847656 C 9.40625 146.949219 16.136719 149.089844 17.777344 149.429688 C 17.972656 149.433594 18.070312 149.339844 17.976562 149.238281 C 17.328125 148.152344 14.335938 144.378906 17.367188 143.59375 C 23.910156 142.132812 26.679688 143.671875 31.816406 147.316406 C 34.191406 149.035156 36.488281 150.074219 39.195312 150.539062 C 39.871094 150.65625 39.875 150.464844 39.398438 150.15625 C 38.351562 149.449219 29.605469 143.175781 33.050781 141.625 C 33.542969 141.347656 34.414062 141.472656 35.464844 141.988281 C 35.847656 142.191406 35.945312 142.097656 35.664062 141.800781 C 33.96875 140.003906 30.121094 135.523438 29.8125 132.796875 C 29.164062 128.507812 34.824219 130.710938 36.546875 131.539062 C 36.640625 131.636719 36.742188 131.542969 36.839844 131.449219 C 36.839844 131.449219 36.941406 131.355469 36.847656 131.253906 C 36.773438 130.378906 37.097656 129.320312 37.789062 128.855469 C 40.460938 127.089844 44.859375 132.75 46.070312 134.4375 C 46.253906 134.832031 46.445312 134.835938 46.464844 134.253906 C 46.414062 132.601562 47.1875 129.421875 49.675781 130.660156 C 50.34375 130.972656 51.09375 131.964844 52.210938 133.546875 C 55.277344 138.199219 58.878906 144.417969 64.046875 146.898438 C 64.140625 147 64.4375 146.910156 64.441406 146.71875 C 64.441406 146.71875 64.441406 146.71875 64.542969 146.625 C 64.773438 145.273438 63.386719 143 62.542969 141.90625 C 58.984375 137.53125 53.460938 130.671875 54.992188 124.703125 C 55.003906 124.3125 55.402344 123.9375 55.789062 123.949219 C 58.621094 123.351562 62.585938 127.15625 64.28125 128.953125 C 64.375 129.050781 64.375 129.050781 64.476562 128.957031 L 65.144531 126.066406 C 65.25 125.777344 65.449219 125.589844 65.742188 125.5 C 68.285156 124.800781 69.824219 128.628906 70.546875 130.398438 C 72.179688 134.328125 73.816406 138.0625 74.570312 142.257812 C 74.664062 142.359375 74.664062 142.359375 74.757812 142.457031 C 77.03125 141.070312 78.976562 140.929688 81.511719 140.421875 C 81.613281 140.328125 81.613281 140.328125 81.613281 140.328125 C 81.613281 140.328125 81.519531 140.230469 81.519531 140.230469 C 79.414062 139.199219 73 136.195312 72.578125 133.949219 C 72.492188 133.65625 72.691406 133.46875 72.984375 133.378906 C 72.984375 133.378906 73.085938 133.285156 73.179688 133.386719 C 76.175781 133.765625 78.695312 133.839844 82 133.742188 C 95.992188 133.179688 108.746094 135.105469 119.726562 144.550781 C 126.355469 150.179688 132.1875 156.5625 137.125 163.597656 C 137.125 163.597656 137.125 163.597656 137.21875 163.695312 C 137.21875 163.695312 137.21875 163.695312 137.320312 163.601562 C 132.917969 154.738281 128.785156 146.757812 124.628906 139.550781 C 120.378906 132.242188 110.824219 117.117188 101.523438 116.648438 C 96.484375 116.308594 91.128906 120.226562 87.171875 122.828125 C 84.5 124.59375 80.453125 126.902344 77.261719 126.519531 C 76.78125 126.40625 76.589844 126.207031 76.601562 125.820312 C 76.609375 125.625 76.714844 125.335938 76.820312 125.050781 C 77.023438 124.667969 76.9375 124.371094 76.449219 124.457031 C 74.792969 124.699219 69.914062 125.527344 71.082031 122.164062 C 72.574219 117.546875 79.113281 116.285156 83.207031 115.628906 C 84.671875 115.378906 85.859375 114.636719 86.671875 113.304688 C 86.773438 113.207031 86.679688 113.109375 86.585938 113.007812 C 84.757812 112.46875 82.828125 112.027344 80.800781 111.675781 C 79.929688 111.554688 79.542969 111.542969 78.75 112.101562 C 77.558594 113.035156 76.460938 114.070312 75.367188 114.914062 C 72.585938 117.160156 68.667969 118.40625 65.292969 117.625 C 61.726562 116.84375 60.371094 113.40625 62.207031 110.355469 C 63.632812 108.066406 65.527344 106.277344 67.890625 105.183594 C 68.28125 105 68.289062 104.808594 67.902344 104.796875 C 62.09375 104.238281 55.242188 102.96875 50.699219 98.953125 C 48.90625 97.25 49.042969 95.800781 51.03125 94.304688 C 53.308594 92.722656 55.523438 93.273438 58.046875 93.347656 C 58.238281 93.351562 58.238281 93.351562 58.050781 93.152344 C 55.023438 90.539062 51.554688 86.265625 52.355469 82.117188 C 52.808594 79.992188 54 79.058594 55.933594 79.308594 C 56.800781 79.429688 57.761719 79.847656 58.523438 80.257812 C 58.621094 80.359375 58.820312 80.167969 58.917969 80.074219 C 59.019531 79.980469 58.925781 79.882812 58.925781 79.882812 C 57.441406 77.507812 57.753906 73.441406 61.527344 73.84375 C 63.847656 74.105469 66.402344 76.414062 68.667969 78.613281 C 72.820312 82.617188 77.371094 86.246094 82.230469 89.394531 C 82.230469 89.394531 82.230469 89.394531 82.328125 89.300781 C 81.292969 88.203125 79.59375 86.601562 79.050781 85.226562 C 78.957031 85.125 78.964844 84.933594 79.0625 84.839844 C 79.375 84.167969 80.0625 83.898438 80.832031 84.113281 C 82.664062 84.457031 84.199219 85.085938 85.539062 85.707031 C 86.304688 86.117188 86.40625 86.023438 85.644531 85.417969 C 82.898438 83.105469 79.554688 81.359375 76.507812 79.328125 C 74.507812 78.007812 71.191406 75.289062 70.382812 73.035156 C 70.292969 72.742188 70.394531 72.648438 70.6875 72.558594 C 72.351562 72.121094 74.097656 72.171875 75.636719 72.605469 C 75.925781 72.710938 75.925781 72.710938 75.734375 72.511719 C 72.152344 68.914062 69.363281 64.753906 67.558594 60.042969 C 66.746094 57.984375 66.03125 52.625 69.605469 53.214844 C 70.472656 53.335938 71.425781 53.945312 72.753906 54.957031 C 74.9375 56.667969 77.019531 58.476562 79.101562 60.285156 C 79.195312 60.386719 79.296875 60.289062 79.296875 60.289062 C 79.296875 60.289062 79.394531 60.195312 79.394531 60.195312 C 79.148438 58.734375 80.378906 56.441406 82.277344 57.855469 C 83.984375 59.261719 85.492188 60.859375 86.597656 62.832031 C 86.691406 62.933594 86.691406 62.933594 86.792969 62.839844 C 87.007812 62.070312 87.417969 61.304688 87.921875 60.640625 C 88.738281 59.304688 90.074219 60.121094 91.132812 60.441406 C 91.324219 60.449219 91.324219 60.449219 91.230469 60.347656 C 90.03125 58.277344 90.675781 56.160156 93.363281 57.207031 L 93.460938 57.113281 C 93.5625 57.019531 93.46875 56.921875 93.46875 56.921875 C 90.605469 55.285156 88.316406 53.859375 86.351562 51.375 C 85.226562 49.984375 84.996094 47.9375 87.152344 47.222656 C 89.214844 46.410156 91.363281 45.890625 93.703125 45.570312 C 93.390625 46.242188 92.214844 46.597656 92.964844 47.589844 C 93.335938 48.183594 93.230469 48.46875 92.542969 48.742188 C 91.855469 49.011719 91.078125 48.988281 90.574219 49.652344 C 89.871094 50.507812 90.136719 51.386719 91.082031 52.191406 C 93.917969 54.796875 97.152344 57.027344 99.289062 60.292969 C 99.382812 60.394531 99.378906 60.585938 99.277344 60.679688 C 99.179688 60.777344 99.179688 60.777344 99.082031 60.675781 L 93.699219 58.964844 C 93.503906 58.960938 93.40625 59.054688 93.5 59.152344 C 93.5 59.152344 93.492188 59.347656 93.492188 59.347656 C 95.265625 61.824219 98.417969 63.566406 100.792969 65.289062 C 105.734375 68.925781 109.640625 74.667969 109.746094 80.980469 C 109.835938 81.273438 109.535156 81.554688 109.25 81.449219 C 109.25 81.449219 109.25 81.449219 109.054688 81.445312 C 108.859375 81.441406 108.671875 81.238281 108.382812 81.132812 C 105.253906 78.617188 102.417969 76.011719 99.972656 73.414062 C 99.3125 72.71875 99.214844 72.8125 99.480469 73.691406 C 100.09375 75.941406 101.195312 78.109375 102.484375 80.476562 C 102.855469 81.070312 103.03125 81.65625 103.207031 82.246094 C 103.203125 82.4375 103.101562 82.53125 103.003906 82.628906 C 103.003906 82.628906 102.902344 82.722656 102.808594 82.621094 C 98.082031 81.609375 95.058594 78.804688 92.664062 74.464844 C 90.910156 71.402344 89.546875 68.160156 88.972656 64.554688 C 88.890625 64.066406 88.796875 63.964844 88.492188 64.441406 C 88.179688 65.113281 88.058594 65.980469 88.125 67.050781 C 88.210938 67.34375 88.113281 67.441406 87.820312 67.527344 C 87.625 67.523438 87.53125 67.421875 87.4375 67.324219 C 86.046875 65.050781 84.363281 62.867188 82.675781 60.875 C 82.488281 60.675781 82.488281 60.675781 82.382812 60.964844 C 82.449219 62.03125 82.703125 63.300781 83.347656 64.386719 C 83.4375 64.683594 83.527344 64.976562 83.421875 65.265625 C 83.414062 65.457031 83.316406 65.550781 83.222656 65.453125 C 82.257812 65.230469 81.679688 65.019531 81.304688 64.621094 C 78.933594 62.707031 76.753906 60.992188 74.851562 59.578125 C 74.09375 58.972656 72.847656 58.453125 72.054688 59.011719 C 69.675781 60.6875 75.480469 68.039062 76.507812 69.332031 C 77.445312 70.523438 78.671875 71.628906 80.003906 72.636719 C 81.996094 74.152344 83.796875 75.660156 85.585938 77.554688 C 85.679688 77.65625 85.671875 77.851562 85.574219 77.945312 C 85.472656 78.039062 85.472656 78.039062 85.378906 77.9375 C 84.890625 78.019531 84.410156 77.910156 83.832031 77.699219 C 81.046875 76.742188 78.453125 75.792969 75.960938 74.75 C 74.808594 74.328125 74.710938 74.421875 75.757812 75.132812 C 80.027344 78.460938 85.359375 81.917969 88.296875 84.429688 C 91.324219 87.039062 94.820312 90.347656 96.554688 93.988281 C 96.738281 94.382812 96.640625 94.476562 96.257812 94.269531 C 95.96875 94.164062 95.6875 93.863281 95.210938 93.558594 C 93.027344 91.847656 90.839844 90.328125 88.359375 88.894531 C 87.023438 88.078125 85.6875 87.265625 84.347656 86.644531 C 84.253906 86.542969 84.058594 86.539062 84.058594 86.539062 C 84.058594 86.539062 83.960938 86.632812 83.960938 86.632812 C 83.960938 86.632812 83.960938 86.632812 84.054688 86.730469 C 85.378906 87.933594 87.925781 90.433594 88.261719 92.191406 C 88.351562 92.484375 88.050781 92.769531 87.855469 92.761719 C 87.855469 92.761719 87.855469 92.761719 87.664062 92.757812 C 86.695312 92.726562 85.921875 92.511719 84.964844 92.09375 C 77.769531 89.265625 71.441406 83.351562 65.667969 78.234375 C 64.816406 77.53125 63.6875 76.332031 62.617188 76.398438 C 62.421875 76.394531 62.324219 76.488281 62.222656 76.582031 C 61.019531 77.90625 61.816406 80.546875 62.558594 81.734375 C 63.757812 83.808594 65.054688 85.980469 66.355469 87.960938 C 66.449219 88.058594 66.445312 88.253906 66.539062 88.355469 C 66.632812 88.453125 66.53125 88.546875 66.339844 88.542969 C 66.339844 88.542969 66.242188 88.441406 66.144531 88.535156 C 64.0625 86.726562 62.074219 85.019531 60.179688 83.410156 C 59.328125 82.707031 58.378906 81.902344 57.414062 81.679688 C 55.96875 81.347656 55.355469 82.496094 55.515625 83.664062 C 55.917969 86.488281 57.695312 88.773438 59.582031 90.578125 C 61.277344 92.371094 62.972656 94.167969 64.566406 96.058594 C 64.941406 96.460938 65.128906 96.660156 65.21875 96.953125 C 65.683594 97.644531 65.484375 97.832031 64.820312 97.328125 C 62.335938 95.898438 58.023438 94.121094 55.089844 94.8125 C 54.796875 94.902344 54.695312 94.996094 54.984375 95.101562 C 57.285156 96.136719 59.589844 96.980469 61.980469 98.121094 C 62.558594 98.332031 62.746094 98.53125 62.839844 98.628906 C 63.214844 99.027344 63.117188 99.125 62.636719 99.011719 C 59.742188 98.34375 56.851562 97.679688 53.953125 97.207031 C 53.277344 97.089844 52.890625 97.078125 52.695312 97.070312 C 51.71875 97.238281 51.613281 97.523438 52.46875 98.230469 C 55.320312 100.253906 58.898438 100.648438 62.378906 101.140625 C 66.058594 101.441406 69.527344 102.320312 73.078125 103.683594 C 73.460938 103.890625 73.554688 103.988281 73.058594 104.265625 C 70.890625 105.367188 67.839844 106.929688 66.792969 109.421875 C 66.0625 111.242188 65.523438 113.070312 65.273438 115.007812 C 65.167969 115.292969 65.449219 115.59375 65.738281 115.699219 C 65.738281 115.699219 65.738281 115.699219 65.929688 115.703125 C 70.601562 115.257812 73.1875 113.199219 76.664062 110.488281 C 79.640625 108.246094 86.476562 110.09375 89.339844 111.730469 C 89.433594 111.832031 89.527344 111.929688 89.429688 112.023438 C 87.929688 113.4375 86.621094 115.046875 85.40625 116.757812 C 85.003906 117.332031 84.214844 117.695312 82.945312 117.949219 C 79.820312 118.632812 77.382812 119.046875 74.980469 121.5 C 74.582031 121.878906 74.671875 122.171875 75.246094 122.382812 C 75.535156 122.488281 76.023438 122.40625 76.511719 122.324219 C 78.367188 121.890625 81.011719 121.09375 82.855469 121.050781 C 83.050781 121.058594 83.144531 121.15625 83.042969 121.25 C 83.042969 121.25 82.945312 121.347656 82.945312 121.347656 L 79.84375 124.457031 C 79.347656 124.929688 79.441406 125.027344 80.121094 124.953125 C 83.253906 124.074219 85.542969 122.101562 88.03125 119.941406 C 93.011719 115.625 99.015625 112.789062 105.652344 114.828125 C 114.5 117.609375 121.160156 125.472656 126.269531 133.289062 C 129.613281 138.433594 132.484375 143.078125 134.691406 147.21875 C 141.882812 160.242188 148.292969 173.238281 153.839844 186.117188 C 158.929688 197.910156 163.109375 210.941406 167.398438 223.488281 C 167.398438 223.488281 167.492188 223.589844 167.492188 223.589844 L 171.304688 222.632812 C 171.304688 222.632812 171.40625 222.539062 171.40625 222.539062 C 168.972656 216.160156 166.339844 209.96875 163.605469 203.871094 C 154.21875 183.117188 144.804688 163.140625 135.375 143.746094 C 133.085938 139.117188 130.246094 133.308594 126.566406 126.40625 C 126.472656 126.308594 126.574219 126.214844 126.671875 126.121094 L 126.867188 126.125 C 127.160156 126.035156 127.347656 126.234375 127.441406 126.335938 C 130.226562 130.6875 132.722656 134.933594 134.925781 139.269531 C 140.902344 150.605469 145.671875 160.0625 149.335938 167.542969 C 149.605469 168.230469 150.34375 169.613281 151.542969 171.683594 C 151.542969 171.683594 151.636719 171.785156 151.636719 171.785156 C 151.636719 171.785156 151.738281 171.691406 151.738281 171.691406 C 146.617188 160.867188 141.5 150.039062 136.875 138.9375 C 131.339844 125.867188 126.777344 112.632812 123.101562 98.9375 C 120.480469 88.960938 118.105469 80.644531 116.257812 74.085938 C 115.992188 73.203125 115.726562 72.324219 115.265625 71.4375 C 114.8125 70.355469 113.761719 69.839844 113.214844 68.660156 C 112.023438 66.199219 110.835938 63.738281 109.542969 61.371094 C 106.339844 54.773438 102.445312 48.640625 97.859375 42.78125 C 97.765625 42.683594 97.765625 42.683594 97.867188 42.589844 L 97.964844 42.496094 C 105.226562 49.792969 110.128906 57.992188 114.027344 67.324219 L 114.128906 67.230469 C 114.128906 67.230469 114.230469 67.136719 114.230469 67.136719 C 110.082031 52.941406 105.496094 40.484375 100.867188 29.574219 C 100.140625 27.804688 98.316406 23.871094 95.484375 17.867188 C 95.390625 17.769531 95.488281 17.671875 95.488281 17.671875 L 95.589844 17.578125 C 95.789062 17.390625 95.882812 17.492188 95.976562 17.589844 C 97.835938 20.363281 99.320312 22.734375 100.425781 24.707031 C 107.59375 38.503906 113.203125 52.453125 117.8125 67.339844 C 121.988281 80.5625 126.0625 93.878906 130.238281 107.105469 C 130.503906 107.984375 130.601562 107.890625 130.820312 107.121094 C 132.589844 96.402344 139.132812 81.742188 151.152344 78.890625 C 156.527344 77.59375 160.535156 76.644531 164.675781 74.433594 C 165.664062 73.882812 166.355469 73.417969 166.859375 72.753906 C 167.367188 72.085938 167.175781 71.886719 166.496094 71.964844 C 165.132812 72.121094 163.863281 72.375 162.523438 71.75 C 162.234375 71.644531 162.144531 71.351562 162.34375 71.164062 C 162.34375 71.164062 162.445312 71.070312 162.445312 71.070312 C 162.644531 70.882812 163.042969 70.503906 163.242188 70.316406 C 165.816406 68.644531 168.589844 66.785156 171.371094 64.539062 C 171.769531 64.160156 172.070312 63.878906 172.375 63.402344 C 172.476562 63.308594 172.480469 63.113281 172.386719 63.015625 C 171.179688 61.136719 170.609375 60.730469 168.769531 60.578125 Z M 98.5625 78.519531 C 97.546875 76.644531 96.742188 74.386719 96.902344 72.160156 C 97.109375 68.382812 101.011719 71.117188 102.238281 72.21875 C 103.65625 73.523438 104.976562 74.921875 106.191406 76.410156 C 106.476562 76.710938 106.476562 76.710938 106.394531 76.222656 C 104.453125 69.566406 99.605469 66.027344 93.378906 63.226562 C 93.285156 63.125 93.1875 63.21875 93.179688 63.414062 C 92.90625 66.125 93.019531 68.84375 93.53125 71.382812 C 94.132812 74.019531 95.867188 77.664062 98.65625 78.617188 C 98.65625 78.617188 98.65625 78.617188 98.5625 78.519531 Z M 97.058594 163.101562 C 97.433594 163.503906 97.332031 163.597656 96.851562 163.484375 C 94.253906 162.730469 91.695312 160.617188 91.191406 157.886719 C 90.871094 155.546875 92.390625 153.359375 93.613281 151.453125 C 93.613281 151.453125 93.710938 151.359375 93.617188 151.257812 L 81.65625 152.171875 C 81.460938 152.164062 81.359375 152.257812 81.355469 152.453125 L 81.347656 152.648438 C 81.34375 152.839844 81.242188 152.933594 80.957031 152.828125 C 78.097656 151 74.429688 150.308594 73.097656 146.097656 C 72.742188 144.921875 73.265625 143.675781 73.011719 142.40625 C 71.894531 137.425781 70.191406 132.621094 67.707031 127.984375 C 67.523438 127.589844 67.332031 127.585938 67.320312 127.972656 C 67.046875 130.683594 67.066406 133.304688 67.179688 136.023438 C 67.273438 136.125 67.175781 136.21875 66.980469 136.214844 C 66.980469 136.214844 66.980469 136.214844 66.886719 136.113281 C 66.792969 136.011719 66.699219 135.914062 66.511719 135.714844 C 64.554688 132.84375 60.464844 126.707031 56.996094 125.828125 C 56.804688 125.820312 56.804688 125.820312 56.703125 125.917969 C 56.269531 127.457031 57.089844 129.324219 58.019531 130.710938 C 58.855469 131.996094 60.625 134.472656 63.535156 137.957031 C 65.214844 140.140625 68.96875 144.519531 68.203125 147.507812 C 67.746094 149.824219 65.414062 149.949219 63.597656 149.023438 C 57.566406 146.226562 52.933594 138.714844 49.59375 133.375 C 49.316406 132.882812 49.21875 132.976562 49.300781 133.464844 C 49.597656 136.578125 50.183594 139.796875 51.066406 142.734375 C 51.0625 142.929688 50.867188 142.921875 50.679688 142.722656 C 48.507812 140.621094 46.632812 138.433594 44.957031 136.054688 C 43.84375 134.273438 42.160156 132.089844 40.542969 130.976562 C 40.449219 130.875 40.253906 130.871094 40.054688 131.058594 C 40.054688 131.058594 39.953125 131.152344 40.050781 131.25 C 39.882812 133.671875 40.882812 135.933594 41.597656 138.089844 C 41.960938 138.878906 41.761719 139.066406 41.101562 138.367188 C 39.03125 136.171875 36.128906 132.496094 33.144531 131.730469 C 32.949219 131.722656 32.851562 131.816406 32.945312 131.917969 C 32.945312 131.917969 32.945312 131.917969 32.9375 132.113281 C 33.382812 133.578125 33.921875 134.953125 34.664062 136.140625 C 36.523438 138.914062 38.578125 141.691406 40.636719 144.273438 C 40.921875 144.574219 41.199219 145.066406 41.46875 145.753906 C 41.5625 145.855469 41.558594 146.046875 41.363281 146.042969 C 40.765625 146.605469 39.910156 145.902344 39.136719 145.878906 C 38.941406 145.875 38.84375 145.96875 39.128906 146.074219 L 46.0625 151.226562 C 46.15625 151.328125 46.152344 151.519531 46.050781 151.613281 C 46.050781 151.613281 45.953125 151.707031 45.953125 151.707031 C 42.011719 153.726562 36.414062 152.59375 32.792969 150.351562 C 28.882812 148.007812 25.578125 144.902344 20.921875 144.765625 C 20.535156 144.753906 20.433594 144.847656 20.71875 145.148438 L 26.035156 149.183594 C 26.222656 149.382812 26.222656 149.382812 26.023438 149.574219 C 26.023438 149.574219 25.828125 149.566406 25.828125 149.566406 C 24.09375 149.128906 22.359375 148.6875 20.621094 148.445312 C 20.527344 148.34375 20.425781 148.4375 20.421875 148.632812 C 21.316406 151.179688 25.921875 153.0625 28.214844 154.296875 C 28.5 154.402344 28.785156 154.699219 29.066406 155 C 29.160156 155.097656 29.253906 155.199219 29.15625 155.292969 C 29 157.328125 26.023438 156.171875 24.878906 155.554688 C 22.003906 154.308594 19.128906 153.058594 16.257812 151.617188 C 15.300781 151.199219 14.242188 150.878906 12.882812 150.835938 C 12.691406 150.832031 12.589844 150.925781 12.777344 151.125 L 17.492188 155.921875 C 17.585938 156.023438 17.484375 156.117188 17.484375 156.117188 C 17.484375 156.117188 17.386719 156.210938 17.386719 156.210938 C 14.648438 156.90625 11.761719 156.046875 9.050781 155.773438 C 7.503906 155.53125 5.953125 155.488281 4.667969 156.324219 C 4.566406 156.417969 4.46875 156.511719 4.5625 156.613281 C 6.523438 159.289062 9.78125 160.742188 12.964844 161.320312 C 14.703125 161.566406 16.339844 162.101562 17.878906 162.53125 C 18.363281 162.644531 18.355469 162.839844 17.867188 162.921875 C 13.167969 164.335938 9.261719 165.191406 5.75 169.070312 C 5.550781 169.257812 5.546875 169.449219 5.632812 169.746094 C 7.847656 173.691406 15.769531 168.292969 18.785156 168.089844 C 19.078125 168.003906 19.359375 168.300781 19.253906 168.589844 C 19.253906 168.589844 19.25 168.785156 19.25 168.785156 L 17.433594 174.457031 C 17.425781 174.652344 17.523438 174.75 17.617188 174.851562 C 17.710938 174.949219 17.808594 174.855469 17.910156 174.761719 C 19.496094 173.644531 20.988281 172.425781 22.382812 171.109375 C 23.28125 170.261719 24.257812 170.097656 25.210938 170.707031 C 25.78125 171.109375 26.238281 171.996094 26.125 172.671875 C 25.679688 174.601562 25.039062 176.523438 25.371094 178.476562 C 25.460938 178.769531 25.648438 178.96875 25.941406 178.878906 C 25.941406 178.878906 26.136719 178.886719 26.234375 178.792969 C 28.515625 177.207031 29.84375 174.820312 31.460938 172.734375 C 33.476562 170.074219 36.054688 168.207031 39.191406 167.136719 C 41.742188 166.238281 47.023438 164.839844 49.523438 165.691406 C 50.003906 165.800781 50.1875 166.195312 50.078125 166.679688 C 49.960938 167.355469 49.742188 168.125 49.339844 168.695312 C 47.902344 171.371094 46.269531 174.039062 44.738281 176.613281 C 44.738281 176.613281 44.832031 176.714844 44.832031 176.714844 C 44.832031 176.714844 44.925781 176.816406 44.925781 176.816406 C 47.011719 175.226562 49.191406 173.738281 51.367188 172.246094 C 51.667969 171.964844 52.15625 171.882812 52.449219 171.792969 C 52.550781 171.699219 52.644531 171.800781 52.636719 171.992188 C 52.636719 171.992188 52.539062 172.085938 52.632812 172.1875 C 51.324219 173.800781 50.113281 175.316406 49 176.933594 C 48.800781 177.121094 48.695312 177.410156 48.589844 177.699219 C 48.582031 177.890625 48.675781 177.992188 48.871094 177.996094 C 48.871094 177.996094 48.871094 177.996094 48.972656 177.902344 C 50.242188 177.648438 51.328125 177.003906 52.136719 175.859375 C 55.359375 171.878906 59.460938 164.429688 65.726562 165.875 C 69.097656 166.652344 68.398438 170.707031 66.214844 172.390625 C 65.816406 172.765625 65.71875 172.667969 66.027344 172.191406 C 67.039062 170.667969 67.589844 168.453125 65.578125 167.519531 C 63.667969 166.492188 60.714844 167.960938 59.3125 169.472656 C 57.003906 172.023438 54.890625 174.582031 52.972656 177.148438 C 52.566406 177.71875 52.660156 177.816406 53.347656 177.546875 C 55.316406 176.632812 57.183594 175.816406 59.246094 175 C 64.355469 172.820312 60.335938 180.953125 59.523438 182.09375 C 57.089844 185.710938 54.253906 189.703125 54.023438 194.257812 C 54.019531 194.453125 54.113281 194.554688 54.308594 194.558594 C 54.308594 194.558594 54.5 194.5625 54.5 194.5625 C 54.800781 194.28125 55.195312 194.097656 55.492188 193.816406 C 57.882812 191.75 60.179688 189.585938 62.472656 187.421875 C 62.574219 187.328125 62.675781 187.234375 62.675781 187.234375 C 62.773438 187.140625 62.867188 187.238281 62.960938 187.339844 C 63.066406 190.449219 62.105469 193.429688 62.109375 196.628906 C 62.089844 197.210938 62.261719 197.992188 62.839844 198.203125 C 64.378906 198.636719 67.351562 193.195312 67.878906 191.753906 C 68.921875 189.261719 69.796875 185.984375 71.410156 183.898438 C 71.714844 183.421875 72.101562 183.433594 72.378906 183.925781 C 73.480469 186.09375 74.28125 188.542969 75.777344 190.527344 C 75.871094 190.628906 75.871094 190.628906 75.96875 190.535156 C 75.96875 190.535156 76.070312 190.441406 76.070312 190.441406 C 76.539062 187.734375 75.765625 184.316406 76.800781 182.019531 C 76.902344 181.921875 77 181.828125 77.195312 181.835938 C 77.195312 181.835938 77.195312 181.835938 77.289062 181.933594 C 78.136719 182.832031 79.089844 183.445312 80.042969 184.054688 C 80.613281 184.457031 80.8125 184.269531 80.734375 183.589844 C 79.855469 180.457031 77.417969 174.273438 78.964844 171.113281 C 79.066406 171.019531 78.96875 170.921875 78.871094 171.015625 C 72.886719 173.265625 67.835938 176.707031 63.519531 181.53125 L 63.425781 181.433594 C 63.425781 181.433594 63.425781 181.433594 63.332031 181.332031 C 68.625 172.945312 76.046875 168.019531 85.695312 166.652344 C 85.988281 166.5625 86.089844 166.46875 85.800781 166.363281 C 71.03125 160.304688 54.828125 160.121094 39.234375 162.382812 C 36.601562 162.789062 31.433594 163.707031 23.625 165.222656 C 22.648438 165.390625 21.285156 165.542969 19.632812 165.59375 C 19.632812 165.59375 19.632812 165.59375 19.539062 165.492188 L 19.445312 165.394531 C 19.351562 165.292969 19.449219 165.199219 19.546875 165.300781 C 20.421875 165.226562 21.203125 165.058594 21.890625 164.785156 C 31.390625 161.859375 41.320312 160.792969 51.152344 159.820312 C 63.515625 158.53125 75.507812 159.851562 86.921875 164.554688 C 100.917969 170.398438 112.011719 179.359375 122.566406 190.152344 C 130.109375 197.746094 136.652344 206.285156 142.210938 215.375 C 145.171875 220.316406 147.152344 225.613281 148.054688 231.171875 C 148.050781 231.367188 148.148438 231.273438 148.25 231.179688 L 153.386719 228.027344 C 151.488281 226.613281 149.984375 225.019531 148.871094 223.238281 C 146.085938 218.886719 143.195312 214.824219 140.316406 210.371094 C 131.578125 197.304688 121.238281 185.746094 109.113281 175.683594 C 99.925781 167.941406 89.433594 161.617188 77.980469 158.273438 C 74.230469 157.097656 69.113281 156.269531 65.253906 155.378906 C 57.042969 154.070312 49.417969 149.382812 43.414062 142.21875 C 43.320312 142.121094 43.320312 142.121094 43.328125 141.925781 L 43.332031 141.734375 C 43.433594 141.636719 43.433594 141.636719 43.527344 141.738281 C 48.726562 146.453125 54.242188 150.300781 60.667969 152.914062 C 65.46875 154.804688 71.738281 156.054688 77.234375 157.28125 C 82.25 158.398438 87.621094 160.496094 93.449219 163.675781 C 112.746094 174.140625 128.585938 190.132812 140.667969 208.34375 C 142.527344 211.117188 144.277344 214.371094 146.125 217.527344 C 146.125 217.527344 146.21875 217.628906 146.21875 217.628906 C 146.21875 217.628906 146.320312 217.535156 146.320312 217.535156 C 143.609375 210.660156 139.917969 204.148438 135.445312 197.804688 C 125.191406 183.335938 112.472656 170.25 97.101562 161.550781 C 95.957031 160.9375 95.007812 160.132812 93.863281 159.515625 C 93.480469 159.308594 93.378906 159.40625 93.5625 159.796875 C 93.65625 159.898438 93.84375 160.097656 94.128906 160.398438 C 95.261719 161.402344 96.210938 162.203125 97.058594 163.101562 Z M 88.582031 140.921875 C 88.578125 141.117188 88.476562 141.210938 88.378906 141.304688 C 86.617188 141.835938 77.25 143.5 78.339844 146.054688 C 78.429688 146.351562 78.808594 146.554688 79.199219 146.566406 C 92.757812 144.148438 105.011719 143.34375 116.875 152.523438 C 121.621094 156.15625 125.945312 160.941406 130.242188 166.695312 C 137.238281 176.3125 143.054688 186.480469 147.683594 197.386719 C 150.046875 202.890625 152.105469 208.871094 154.066406 214.753906 C 155.144531 217.695312 156.414062 220.839844 157.484375 223.976562 C 157.757812 224.664062 158.308594 225.648438 158.476562 226.625 C 158.476562 226.625 158.570312 226.726562 158.570312 226.726562 L 162.601562 225 C 162.699219 224.90625 162.699219 224.90625 162.707031 224.710938 C 161.460938 220.792969 159.824219 217.054688 158.679688 213.042969 C 157.707031 209.8125 155.625 204.609375 152.546875 197.140625 C 144.480469 177.59375 132.640625 157.640625 115.554688 144.523438 C 108.910156 139.476562 101.800781 136.941406 93.574219 136.214844 C 89.023438 135.789062 84.464844 135.753906 79.898438 135.910156 C 79.703125 135.90625 79.605469 136 79.890625 136.105469 C 82.554688 137.929688 85.425781 139.375 88.496094 140.628906 C 88.488281 140.820312 88.488281 140.820312 88.582031 140.921875 Z M 145.289062 203.042969 C 140.265625 188.921875 132.230469 175.003906 122.945312 163.957031 C 116.566406 156.394531 107.925781 149.832031 97.503906 151.179688 C 95.164062 151.5 93.921875 154.179688 93.570312 156.207031 C 93.558594 156.59375 93.648438 156.890625 94.03125 157.09375 C 95.363281 157.910156 96.894531 158.730469 98.328125 159.453125 C 105.5 163.058594 111.976562 167.324219 118.035156 172.546875 C 128.824219 181.988281 138.300781 193.039062 146.082031 205.6875 C 145.816406 204.804688 145.554688 203.925781 145.289062 203.042969 Z M 176.085938 208.507812 C 173.636719 196.109375 171.578125 183.53125 170.101562 170.964844 C 168.976562 159.578125 168.425781 151.992188 168.796875 142.589844 C 169.121094 134.738281 170.703125 127.214844 173.4375 119.917969 C 175.535156 114.542969 177.71875 109.660156 180.171875 105.460938 C 183.75 99.257812 188.542969 91.339844 194.835938 81.820312 C 194.835938 81.820312 194.9375 81.726562 195.03125 81.824219 L 195.125 81.925781 C 195.21875 82.027344 195.214844 82.21875 195.113281 82.3125 C 190.886719 90.828125 186.464844 99.335938 182.042969 107.84375 C 177.832031 115.777344 173.652344 125.941406 173.078125 135.53125 C 173.035156 137.085938 173.128906 137.183594 173.5625 135.644531 C 175.070312 130.449219 181.40625 122.964844 187.914062 126.066406 C 189.925781 127 191.742188 127.925781 193.46875 128.558594 C 194.429688 128.976562 194.527344 128.882812 193.675781 128.175781 L 191.117188 126.0625 C 190.835938 125.765625 190.746094 125.472656 191.046875 125.1875 C 191.144531 125.09375 191.144531 125.09375 191.246094 125 L 193.804688 123.714844 C 193.90625 123.621094 194.003906 123.527344 194.105469 123.433594 C 194.617188 122.574219 194.730469 121.898438 196.085938 122.132812 C 198.59375 122.59375 200.914062 122.855469 203.148438 122.824219 C 203.730469 122.84375 203.734375 122.648438 203.253906 122.539062 C 201.90625 122.109375 200.765625 121.300781 199.726562 120.394531 C 199.632812 120.296875 199.539062 120.195312 199.636719 120.101562 C 200.359375 118.667969 202.230469 117.65625 203.519531 116.820312 C 203.617188 116.726562 203.71875 116.628906 203.625 116.53125 C 203.625 116.53125 203.625 116.53125 203.53125 116.429688 C 202.292969 115.519531 200.054688 115.746094 198.492188 116.089844 C 193.902344 117.023438 189.992188 118.074219 185.1875 116.378906 C 181.925781 115.121094 182.121094 111.726562 183.839844 109.351562 C 184.039062 109.164062 184.039062 109.164062 183.933594 109.453125 C 183.109375 111.175781 182.230469 114.644531 185.539062 114.351562 C 185.832031 114.261719 186.125 114.175781 186.421875 114.085938 C 188.894531 112.507812 191.460938 111.03125 194.019531 109.746094 C 194.808594 109.382812 195.5 108.917969 196.097656 108.351562 C 196.398438 108.070312 196.304688 107.96875 195.917969 107.957031 L 188.828125 108.042969 C 188.828125 108.042969 188.734375 107.941406 188.640625 107.84375 C 188.640625 107.84375 188.742188 107.75 188.742188 107.75 C 189.234375 107.472656 189.820312 107.296875 190.507812 107.023438 C 193.535156 106.433594 196.289062 105.15625 199.054688 103.488281 C 199.449219 103.308594 199.359375 103.011719 198.972656 103 C 196.855469 102.355469 194.222656 102.765625 191.984375 102.992188 C 191.304688 103.070312 190.828125 102.761719 190.851562 101.988281 C 190.824219 99.558594 191.839844 98.039062 193.265625 95.75 C 193.980469 94.507812 194.96875 93.957031 196.417969 94.09375 C 200.191406 94.496094 203.355469 95.851562 206.75 92.652344 C 206.847656 92.554688 206.855469 92.363281 206.761719 92.261719 C 205.726562 91.164062 203.304688 90.996094 201.851562 90.855469 C 200.304688 90.617188 198.800781 89.019531 200.96875 87.917969 C 203.234375 86.722656 205.414062 85.234375 207.597656 83.550781 C 207.699219 83.457031 207.703125 83.265625 207.609375 83.164062 C 205.621094 81.457031 201.457031 84.441406 200.4375 82.761719 C 200.34375 82.660156 200.351562 82.46875 200.449219 82.371094 C 202.265625 80.097656 210.441406 72.570312 207.722656 69.289062 C 207.535156 69.089844 207.246094 68.984375 206.953125 69.074219 C 204.886719 70.078125 202.988281 71.867188 201.386719 73.570312 C 199.785156 75.269531 198.753906 77.375 197.433594 79.371094 C 197.328125 79.660156 196.9375 79.648438 196.652344 79.542969 C 196.269531 79.339844 196.179688 79.046875 196.195312 78.464844 C 196.796875 74.5 197.277344 71.410156 195.164062 67.371094 C 194.980469 66.976562 194.792969 66.777344 194.40625 66.765625 C 194.210938 66.757812 194.015625 66.753906 194.011719 66.949219 C 192.683594 69.140625 192.335938 71.167969 192.167969 73.589844 C 192.011719 75.625 191.382812 77.15625 190.648438 78.980469 C 190.445312 79.363281 190.25 79.355469 190.261719 78.96875 C 189.632812 77.300781 188.808594 75.625 187.789062 73.945312 C 187.601562 73.746094 187.507812 73.648438 187.496094 74.035156 C 187.011719 77.320312 188.371094 80.5625 188.273438 83.859375 C 188.054688 88.027344 186.109375 91.5625 183.769531 95.277344 C 180.8125 100.140625 177.855469 105.003906 174.898438 109.867188 C 174.898438 109.867188 174.796875 109.960938 174.796875 109.960938 C 174.699219 110.054688 174.597656 110.148438 174.503906 110.050781 C 174.410156 109.949219 174.410156 109.949219 174.507812 109.855469 C 174.84375 108.410156 175.269531 107.0625 175.792969 105.816406 C 177.339844 102.660156 178.988281 99.410156 180.730469 96.257812 C 183.195312 91.671875 182.789062 85.640625 180.398438 81.105469 C 180.304688 81.007812 180.304688 81.007812 180.109375 81 C 180.109375 81 180.007812 81.09375 180.007812 81.09375 C 179.171875 83.207031 178.621094 85.421875 178.164062 87.738281 C 178.160156 87.933594 178.160156 87.933594 178.058594 88.027344 C 177.960938 88.121094 177.765625 88.113281 177.671875 88.015625 C 176.96875 85.472656 176.480469 82.351562 175.285156 80.082031 C 175.101562 79.691406 175 79.785156 174.894531 80.074219 C 173.789062 84.699219 174.617188 89.574219 175.746094 94.167969 C 176.171875 96.21875 176.113281 98.160156 175.378906 99.980469 C 175.28125 100.078125 175.179688 100.171875 175.085938 100.070312 C 175.085938 100.070312 174.992188 99.972656 174.992188 99.972656 C 174.070312 98.390625 170.742188 92.664062 168.515625 92.503906 C 168.128906 92.492188 168.027344 92.585938 168.210938 92.980469 C 170.476562 98.382812 172.441406 104.261719 172.171875 110.175781 C 172.097656 112.695312 171.839844 114.824219 171.390625 116.945312 C 169.589844 125.433594 167.933594 132.277344 167.351562 138.859375 C 167.351562 138.859375 167.253906 138.953125 167.253906 138.953125 L 167.152344 139.046875 C 167.085938 137.976562 167.214844 136.914062 167.34375 135.851562 C 167.90625 129.847656 168.765625 123.761719 169.910156 117.777344 C 170.945312 112.273438 170.914062 106.644531 169.421875 101.261719 C 168.816406 98.820312 167.609375 93.542969 165.515625 92.125 C 165.328125 91.925781 165.035156 92.011719 165.03125 92.207031 C 165.03125 92.207031 164.929688 92.300781 164.929688 92.300781 C 164.28125 94.609375 164.78125 97.34375 165.007812 99.582031 C 165.085938 100.261719 164.890625 100.257812 164.613281 99.765625 C 163.3125 97.785156 161.914062 95.898438 160.21875 94.105469 C 159.9375 93.804688 159.742188 93.796875 159.824219 94.285156 C 159.726562 100.980469 167.277344 104.984375 166.804688 111.085938 C 166.800781 111.28125 166.601562 111.46875 166.507812 111.367188 C 166.507812 111.367188 166.507812 111.367188 166.414062 111.269531 C 166.320312 111.167969 166.125 111.164062 166.03125 111.0625 C 164.613281 109.761719 162.636719 107.664062 160.8125 106.933594 C 160.429688 106.726562 160.332031 106.820312 160.515625 107.214844 C 163.011719 111.460938 167.148438 119.25 165.640625 124.445312 C 164.667969 127.8125 162.503906 125.519531 161.484375 123.839844 C 160.472656 121.964844 159.457031 120.089844 158.546875 118.125 C 157.253906 115.757812 154.449219 112.179688 151.769531 110.9375 C 151.671875 110.835938 151.574219 110.933594 151.574219 110.933594 C 151.574219 110.933594 151.574219 110.933594 151.566406 111.125 C 151.925781 112.105469 152.09375 113.082031 152.648438 114.070312 C 153.558594 116.035156 155.125 118.898438 154.871094 121.023438 C 154.859375 121.414062 154.5625 121.5 154.175781 121.488281 C 150.800781 120.710938 147.96875 118.105469 144.804688 116.75 C 144.710938 116.652344 144.609375 116.746094 144.511719 116.839844 C 144.511719 116.839844 144.511719 116.839844 144.410156 116.933594 C 144.566406 118.296875 145.023438 119.183594 145.960938 120.375 C 149.25 124.0625 153.066406 126.308594 156.464844 129.515625 C 156.558594 129.613281 156.460938 129.707031 156.460938 129.707031 C 156.460938 129.707031 156.460938 129.707031 156.359375 129.804688 C 155.773438 129.980469 155.191406 129.960938 154.800781 129.953125 C 151.800781 129.765625 149 129.199219 146.21875 128.050781 L 146.121094 128.144531 C 146.019531 128.238281 146.113281 128.339844 146.113281 128.339844 C 147.835938 129.164062 149.660156 129.898438 151.382812 130.726562 C 151.671875 130.832031 152.054688 131.035156 152.140625 131.328125 C 152.234375 131.429688 152.230469 131.621094 152.035156 131.617188 C 151.0625 131.78125 149.507812 131.738281 148.621094 132.195312 C 148.230469 132.378906 148.027344 132.566406 147.929688 132.660156 C 147.21875 133.707031 147.40625 133.910156 148.582031 133.554688 C 152.605469 132.023438 159.070312 133.277344 160.785156 137.695312 C 162.136719 141.328125 162.609375 145.027344 162.890625 148.726562 C 164.183594 160.894531 165.773438 172.976562 167.746094 185.066406 C 169.882812 198.328125 172.722656 210.738281 174.632812 221.761719 C 174.632812 221.761719 174.726562 221.859375 174.726562 221.859375 L 178.714844 221.492188 C 178.714844 221.492188 178.816406 221.398438 178.816406 221.398438 Z M 178.261719 223.808594 C 166.976562 224.640625 156.074219 229.078125 147.230469 236.097656 C 146.339844 236.75 146.21875 237.621094 146.769531 238.609375 L 146.957031 238.808594 C 147.511719 239.792969 148.289062 239.816406 149.179688 239.164062 C 151.667969 237.003906 153.359375 235.597656 154.152344 235.039062 C 161.386719 229.914062 169.941406 226.183594 178.542969 224.105469 C 178.542969 224.105469 178.542969 224.105469 178.640625 224.011719 L 178.648438 223.820312 C 178.355469 223.90625 178.355469 223.90625 178.261719 223.808594 Z M 152.023438 244.777344 C 151.832031 244.773438 151.738281 244.671875 151.742188 244.480469 C 151.742188 244.480469 151.746094 244.285156 151.847656 244.191406 C 159.238281 237.03125 168.402344 232.351562 178.371094 229.925781 C 180.621094 229.3125 182.867188 228.890625 185.011719 228.566406 C 185.597656 228.390625 185.597656 228.390625 185.023438 228.179688 C 182.519531 227.523438 178.910156 228.097656 176.464844 228.703125 C 167.578125 230.675781 157.5625 234.652344 150.96875 241.058594 C 150.667969 241.34375 150.5625 241.632812 150.746094 242.023438 C 151.011719 242.90625 151.453125 244.375 150.945312 245.234375 C 150.027344 246.660156 151.285156 250.191406 153.179688 248.402344 C 156.082031 245.480469 159.449219 243.054688 163.203125 240.835938 C 169.324219 237.328125 175.515625 234.695312 181.777344 232.9375 C 183.441406 232.5 183.445312 232.304688 181.695312 232.449219 C 174.496094 233.015625 167.125 236.195312 160.910156 239.605469 C 158.542969 240.894531 155.964844 242.757812 153.492188 244.335938 C 152.898438 244.707031 152.414062 244.789062 152.023438 244.777344 Z M 167.367188 267.648438 C 166.03125 263.628906 163.691406 257.347656 160.445312 248.90625 C 160.445312 248.90625 160.351562 248.808594 160.351562 248.808594 L 157.671875 250.769531 C 157.574219 250.863281 157.574219 250.863281 157.667969 250.960938 C 163.960938 274.632812 168.152344 297.269531 170.367188 321.015625 C 170.363281 321.210938 170.457031 321.308594 170.652344 321.316406 C 170.652344 321.316406 170.652344 321.316406 170.75 321.222656 C 173.113281 320.125 175.550781 319.710938 178.160156 320.078125 C 178.355469 320.085938 178.453125 319.992188 178.460938 319.796875 C 177.742188 314.4375 177.027344 309.078125 176.210938 303.816406 C 174.339844 291.433594 171.296875 279.410156 167.367188 267.648438 Z M 168.71875 244.683594 L 167.441406 245.328125 C 166.953125 245.410156 166.464844 245.492188 166.160156 245.96875 C 166.058594 246.0625 165.960938 246.15625 166.054688 246.257812 C 169.148438 256.539062 171.378906 263.300781 172.445312 266.632812 C 179.082031 285.265625 183.980469 300.257812 189.3125 317.105469 C 189.3125 317.105469 189.40625 317.207031 189.40625 317.207031 C 191.289062 315.804688 193.546875 315 195.972656 314.972656 C 196.167969 314.976562 196.265625 314.882812 196.171875 314.785156 C 192.449219 306.039062 188.726562 297.289062 185.492188 288.460938 C 180.816406 275.707031 175.851562 263.042969 171.863281 250.019531 C 171.238281 248.15625 170.808594 246.300781 170.476562 244.347656 C 170.484375 244.15625 170.195312 244.050781 170 244.042969 C 170 244.042969 170 244.042969 169.902344 244.136719 Z M 204.910156 314.652344 C 207.097656 312.96875 209.457031 311.871094 212.285156 311.46875 C 212.476562 311.476562 212.382812 311.375 212.390625 311.183594 C 210.433594 308.308594 208.574219 305.539062 206.816406 302.671875 C 195.339844 283.507812 184.570312 263.492188 177.527344 242.226562 C 177.527344 242.226562 177.433594 242.125 177.433594 242.125 L 173.914062 242.992188 C 173.8125 243.085938 173.8125 243.085938 173.8125 243.085938 C 174.519531 245.4375 175.136719 247.6875 176.035156 250.042969 C 184.121094 272.214844 194.570312 293.289062 204.816406 314.550781 C 204.71875 314.644531 204.8125 314.746094 204.910156 314.652344 Z M 203.210938 279.855469 C 195.019531 267.972656 189.46875 255.289062 185.894531 241.5 C 185.800781 241.398438 185.800781 241.398438 185.800781 241.398438 L 183.179688 241.421875 C 183.179688 241.421875 183.078125 241.515625 183.078125 241.515625 C 187.707031 255.820312 193.804688 269.683594 201.371094 283.101562 C 206.632812 292.28125 212.695312 300.710938 219.46875 308.089844 C 219.5625 308.1875 219.753906 308.195312 219.855469 308.101562 C 221.246094 306.976562 222.730469 305.953125 224.402344 305.324219 C 224.5 305.226562 224.5 305.226562 224.40625 305.128906 C 216.371094 297.808594 209.351562 288.964844 203.210938 279.855469 Z M 203.210938 279.855469 " fill-opacity="1" fill-rule="nonzero"/></g></g></g><g clip-path="url(#12fbb09b95)"><g clip-path="url(#eef5986ae6)"><g clip-path="url(#f49b69e709)"><path fill="#6a994e" d="M 81.910156 37.269531 C 86.726562 38.574219 91.03125 40.738281 94.824219 43.761719 C 90.890625 42.191406 88.101562 41.234375 86.074219 40.882812 C 83.757812 40.429688 81.445312 39.972656 79.320312 39.523438 C 78.164062 39.292969 75.855469 38.644531 75.898438 37.09375 C 75.90625 36.898438 76.003906 36.804688 76.105469 36.710938 C 77.285156 36.164062 80.363281 37.03125 81.910156 37.269531 Z M 81.910156 37.269531 " fill-opacity="1" fill-rule="nonzero"/></g></g></g><g clip-path="url(#9c8375fd5a)"><g clip-path="url(#157683a333)"><g clip-path="url(#1ffd5fbd43)"><path fill="#6a994e" d="M 136.796875 75.269531 L 133.195312 82.25 C 133.089844 82.535156 132.898438 82.53125 132.605469 82.621094 L 130.570312 82.464844 C 130.28125 82.359375 130.1875 82.257812 130.386719 82.070312 C 132.421875 78.828125 134.089844 74.996094 134.683594 71.226562 C 134.789062 70.941406 134.59375 70.933594 134.394531 71.121094 C 133.210938 71.863281 131.804688 73.375 130.433594 73.917969 C 130.136719 74.007812 129.65625 73.894531 129.566406 73.601562 C 129.472656 73.503906 129.574219 73.40625 129.480469 73.308594 C 129.828125 68.078125 134.894531 64.054688 137.71875 60.449219 C 139.429688 58.265625 140.785156 55.101562 139.605469 52.253906 C 138.609375 49.796875 134.441406 52.976562 133.347656 53.816406 C 133.148438 54.003906 133.054688 53.90625 132.867188 53.707031 C 132.773438 53.605469 132.773438 53.605469 132.777344 53.414062 C 132.785156 53.21875 132.785156 53.21875 132.882812 53.125 C 136.011719 49.042969 141.417969 43.378906 141.867188 38.054688 C 141.871094 37.859375 141.777344 37.757812 141.582031 37.753906 C 140.425781 37.527344 138.945312 38.355469 137.863281 38.808594 C 137.765625 38.902344 137.671875 38.804688 137.578125 38.703125 C 137.578125 38.703125 137.484375 38.605469 137.582031 38.511719 C 138.117188 33.480469 144.265625 29 142.957031 24.011719 C 142.960938 23.816406 142.675781 23.710938 142.574219 23.808594 C 142.574219 23.808594 142.574219 23.808594 142.472656 23.902344 L 139.015625 26.03125 C 138.621094 26.214844 138.234375 26.203125 138.050781 25.808594 C 137.957031 25.710938 137.957031 25.710938 137.960938 25.515625 C 137.792969 24.734375 137.8125 23.957031 137.929688 23.28125 C 138.382812 21.160156 139.570312 17.023438 138.65625 15.054688 C 138.472656 14.660156 138.09375 14.457031 137.605469 14.539062 C 137.503906 14.632812 137.40625 14.726562 137.40625 14.726562 C 134.898438 17.46875 133.410156 21.890625 132.726562 25.363281 C 132.71875 25.558594 132.414062 26.03125 132.316406 26.128906 C 132.214844 26.222656 132.023438 26.214844 131.929688 26.117188 C 131.929688 26.117188 131.929688 26.117188 131.832031 26.015625 C 131.203125 24.347656 130.472656 22.773438 129.449219 21.289062 C 129.265625 20.894531 129.167969 20.988281 129.15625 21.375 L 129.261719 27.6875 C 129.253906 27.882812 129.054688 28.070312 128.761719 28.160156 C 128.761719 28.160156 128.570312 28.152344 128.570312 28.152344 C 127.421875 27.535156 126.859375 23.542969 126.699219 22.371094 C 126.628906 21.496094 126.65625 20.527344 126.972656 19.664062 C 129.082031 17.296875 131.0625 19.199219 131.96875 21.363281 C 132.0625 21.460938 132.0625 21.460938 132.164062 21.367188 C 132.8125 19.058594 138.160156 5.527344 142.183594 10.597656 C 143.867188 12.78125 141.125 20.269531 140.28125 22.574219 C 139.96875 23.246094 140.0625 23.34375 140.664062 22.78125 C 141.761719 21.746094 143.5625 19.855469 144.859375 22.03125 C 147.449219 26.375 143.476562 32.761719 140.664062 35.980469 C 140.566406 36.074219 140.660156 36.171875 140.660156 36.171875 C 140.753906 36.273438 140.753906 36.273438 140.851562 36.179688 C 142.828125 35.074219 144.765625 35.128906 144.773438 38.136719 C 144.644531 42.597656 140.320312 47.808594 137.703125 51.03125 C 137.601562 51.128906 137.597656 51.320312 137.796875 51.132812 C 138.089844 51.042969 138.1875 50.949219 138.484375 50.863281 C 138.582031 50.765625 138.683594 50.671875 138.875 50.679688 C 140.238281 50.523438 141.296875 50.847656 142.046875 51.839844 C 143.539062 53.824219 142.460938 57.480469 141.335938 59.484375 C 139.800781 62.253906 137.980469 64.726562 135.683594 66.890625 C 134.785156 67.738281 134.269531 68.789062 133.660156 69.742188 C 133.355469 70.21875 133.449219 70.320312 133.941406 70.042969 L 135.429688 69.019531 C 135.527344 68.925781 135.722656 68.929688 135.816406 69.03125 C 137.628906 70.148438 137.144531 73.4375 136.796875 75.269531 Z M 136.796875 75.269531 " fill-opacity="1" fill-rule="nonzero"/></g></g></g><g clip-path="url(#4a71e810b2)"><g clip-path="url(#ef083030f9)"><g clip-path="url(#01e6a5c237)"><path fill="#6a994e" d="M 83.558594 73.808594 C 87.828125 77.136719 91.511719 80.640625 94.5 84.609375 C 98.335938 89.476562 101.183594 95.09375 102.941406 101.355469 L 102.839844 101.449219 C 102.742188 101.542969 102.644531 101.445312 102.746094 101.351562 C 98.496094 90.648438 91.972656 81.527344 83.164062 73.992188 L 83.265625 73.898438 C 83.371094 73.609375 83.464844 73.707031 83.558594 73.808594 Z M 83.558594 73.808594 " fill-opacity="1" fill-rule="nonzero"/></g></g></g><g clip-path="url(#a36047fee7)"><g clip-path="url(#3879fd58c4)"><g clip-path="url(#446397e905)"><path fill="#6a994e" d="M 125.835938 35.253906 C 126.285156 36.53125 126.644531 37.511719 126.726562 37.996094 C 127.03125 40.917969 126.84375 43.921875 125.984375 46.808594 C 125.980469 47.003906 125.785156 46.996094 125.589844 46.992188 L 125.496094 46.890625 C 125.496094 46.890625 125.402344 46.789062 125.402344 46.789062 C 125.578125 44.175781 125.066406 41.636719 123.777344 39.269531 C 123.683594 39.171875 123.683594 39.171875 123.585938 39.265625 C 122.246094 41.847656 121.292969 44.632812 120.726562 47.429688 C 120.71875 47.625 120.621094 47.71875 120.621094 47.71875 C 120.421875 47.90625 120.132812 47.800781 119.945312 47.601562 C 119.945312 47.601562 119.851562 47.503906 119.851562 47.503906 C 119.507812 45.9375 119.558594 44.195312 119.898438 42.554688 C 120.664062 39.566406 122.203125 36.796875 124.496094 34.632812 C 124.597656 34.539062 124.695312 34.445312 124.789062 34.542969 C 125.460938 34.855469 125.75 34.960938 125.835938 35.253906 Z M 125.835938 35.253906 " fill-opacity="1" fill-rule="nonzero"/></g></g></g><g clip-path="url(#85788a7699)"><g clip-path="url(#ff23a5a440)"><g clip-path="url(#9634cf629c)"><path fill="#6a994e" d="M 66.015625 99.597656 C 66.308594 99.507812 66.703125 99.324219 66.996094 99.238281 C 72.355469 98.519531 77.597656 98.480469 82.808594 99.410156 C 97.480469 102.167969 109.773438 110 119.933594 120.972656 C 120.027344 121.074219 120.027344 121.074219 119.925781 121.167969 L 119.828125 121.261719 C 119.828125 121.261719 119.726562 121.355469 119.726562 121.355469 C 115.179688 117.535156 110.527344 114 105.675781 110.65625 C 93.785156 102.445312 80.59375 98.859375 66.015625 99.597656 C 65.914062 99.691406 65.914062 99.691406 66.015625 99.597656 Z M 66.015625 99.597656 " fill-opacity="1" fill-rule="nonzero"/></g></g></g><g clip-path="url(#17fc63d009)"><g clip-path="url(#bfa8765f08)"><g clip-path="url(#4f7794804b)"><path fill="#6a994e" d="M 123.722656 64.40625 C 127.234375 57.132812 129.273438 50.496094 131.351562 42.5 C 131.351562 42.5 131.449219 42.40625 131.449219 42.40625 L 131.546875 42.507812 C 130.71875 50.828125 128.441406 59.011719 124.441406 66.367188 C 123.71875 67.800781 122.910156 68.941406 121.90625 70.078125 C 121.808594 70.171875 121.613281 70.167969 121.613281 70.167969 C 121.613281 70.167969 121.519531 70.066406 121.519531 70.066406 C 121.523438 69.871094 121.53125 69.679688 121.535156 69.484375 C 122.167969 67.757812 122.894531 66.128906 123.722656 64.40625 Z M 123.722656 64.40625 " fill-opacity="1" fill-rule="nonzero"/></g></g></g><g clip-path="url(#02c73b0581)"><g clip-path="url(#0a6c344274)"><g clip-path="url(#cc6bec44c1)"><path fill="#6a994e" d="M 165.351562 34.761719 C 164.460938 35.414062 163.859375 35.980469 163.554688 36.457031 C 163.046875 37.3125 162.515625 38.753906 162.101562 39.710938 C 155.414062 52.617188 149.113281 65.730469 140.230469 77.3125 C 139.925781 77.789062 139.628906 78.070312 139.226562 78.445312 C 139.226562 78.445312 139.128906 78.539062 139.128906 78.539062 C 139.128906 78.539062 139.128906 78.539062 139.035156 78.441406 C 140.964844 75.488281 142.289062 73.296875 143.3125 71.578125 C 149.234375 61.464844 154.109375 50.832031 159.84375 40.519531 C 163.023438 34.691406 166.203125 28.867188 169.1875 23.03125 C 170.421875 20.738281 173.632812 13.75 171.472656 11.257812 C 172.695312 9.355469 175.703125 9.34375 176.113281 11.976562 C 176.839844 16.949219 172.78125 23.039062 170.238281 26.945312 C 168.613281 29.421875 166.984375 32.089844 165.351562 34.761719 Z M 165.351562 34.761719 " fill-opacity="1" fill-rule="nonzero"/></g></g></g><g clip-path="url(#b0d647adcd)"><g clip-path="url(#1d19ff430c)"><g clip-path="url(#511d83a5dd)"><path fill="#6a994e" d="M 53.652344 157.273438 C 50.527344 157.957031 47.027344 158.046875 43.820312 158.246094 C 37.984375 158.65625 32.054688 158.96875 26.121094 159.472656 C 24.175781 159.613281 22.332031 159.65625 20.386719 159.792969 C 20.386719 159.792969 20.292969 159.691406 20.292969 159.691406 L 20.296875 159.5 C 20.304688 159.304688 20.402344 159.210938 20.496094 159.308594 C 23.617188 158.820312 26.730469 158.523438 29.851562 158.03125 C 37.84375 156.90625 45.71875 156.457031 53.472656 156.683594 C 55.125 156.636719 55.121094 156.828125 53.652344 157.273438 Z M 53.652344 157.273438 " fill-opacity="1" fill-rule="nonzero"/></g></g></g><g clip-path="url(#ac5cff1408)"><g clip-path="url(#3f8ac84ef6)"><g clip-path="url(#d7c95900c6)"><path fill="#6a994e" d="M 155.179688 34.171875 L 155.277344 34.078125 C 155.476562 33.890625 155.773438 33.800781 156.058594 33.90625 C 156.152344 34.007812 156.25 34.105469 156.242188 34.300781 L 156.65625 36.738281 C 156.527344 37.800781 156.398438 38.867188 156.359375 40.222656 C 156.046875 44.289062 154.394531 47.738281 151.109375 50.453125 C 150.8125 50.738281 150.417969 50.917969 150.125 51.007812 C 149.535156 51.183594 149.347656 50.984375 149.847656 50.515625 C 154.828125 46.195312 154.527344 39.878906 155.179688 34.171875 Z M 155.179688 34.171875 " fill-opacity="1" fill-rule="nonzero"/></g></g></g><g clip-path="url(#b8784f5b01)"><g clip-path="url(#4b8cb9b991)"><g clip-path="url(#a296f5092b)"><path fill="#6a994e" d="M 102.796875 89.609375 L 102.300781 86.683594 C 102.300781 86.683594 102.308594 86.488281 102.402344 86.589844 C 102.402344 86.589844 102.402344 86.589844 102.496094 86.6875 C 102.855469 87.667969 102.890625 89.707031 103.84375 90.320312 C 107.273438 92.554688 110.613281 94.496094 113.824219 97.5 C 116.46875 100.101562 119.722656 104.953125 118.832031 108.808594 C 118.039062 112.765625 114.078125 108.765625 113.140625 107.574219 C 109.582031 103.199219 107.273438 99.152344 105.570312 94.347656 C 105.210938 93.367188 104.730469 93.257812 103.972656 92.652344 C 103.023438 91.847656 101.519531 90.25 99.742188 87.964844 C 99.648438 87.867188 99.648438 87.867188 99.648438 87.867188 C 99.648438 87.867188 99.746094 87.773438 99.746094 87.773438 C 99.746094 87.773438 99.847656 87.679688 99.847656 87.679688 L 102.691406 89.898438 C 102.597656 89.796875 102.597656 89.796875 102.796875 89.609375 C 102.699219 89.703125 102.796875 89.609375 102.796875 89.609375 Z M 110.421875 97.691406 C 111.324219 100.046875 114.210938 107.507812 116.515625 108.351562 C 116.710938 108.359375 116.90625 108.363281 116.910156 108.171875 C 116.910156 108.171875 116.910156 108.171875 117.011719 108.078125 C 117.605469 104.308594 113.378906 99.429688 110.722656 97.410156 C 110.242188 97.300781 110.242188 97.300781 110.421875 97.691406 Z M 110.421875 97.691406 " fill-opacity="1" fill-rule="nonzero"/></g></g></g><g clip-path="url(#1f1e3d9a2f)"><g clip-path="url(#6e6a8bc190)"><g clip-path="url(#f020f6fd34)"><path fill="#6a994e" d="M 177.070312 25.59375 C 178.054688 25.234375 178.929688 25.160156 179.691406 25.574219 C 187.558594 28.714844 168.722656 45.535156 165.929688 48.171875 L 162.988281 49.25 C 162.886719 49.34375 162.597656 49.238281 162.605469 49.042969 C 162.605469 49.042969 162.511719 48.945312 162.609375 48.851562 C 162.617188 48.65625 162.714844 48.5625 162.914062 48.375 C 167.21875 43.9375 171.527344 39.308594 175.070312 34.269531 C 176.992188 31.703125 178.726562 28.746094 177.070312 25.59375 Z M 177.070312 25.59375 " fill-opacity="1" fill-rule="nonzero"/></g></g></g><g clip-path="url(#4ccdafda83)"><g clip-path="url(#c201a139f8)"><g clip-path="url(#95fe05c366)"><path fill="#6a994e" d="M 176.40625 45.082031 C 177.960938 44.933594 179.902344 44.988281 179.9375 47.027344 C 179.996094 51.6875 172.453125 54.089844 169.292969 55.9375 C 164.949219 58.527344 160.976562 61.515625 157.375 65.292969 L 153.714844 67.613281 C 153.515625 67.800781 153.226562 67.695312 153.132812 67.59375 C 152.945312 67.394531 152.949219 67.203125 153.15625 66.820312 C 153.578125 65.667969 154.1875 64.714844 154.992188 63.765625 C 159.421875 58.269531 165.074219 54.261719 171.644531 51.832031 C 173.515625 51.011719 178.464844 47.664062 176.40625 45.082031 Z M 176.40625 45.082031 " fill-opacity="1" fill-rule="nonzero"/></g></g></g><g clip-path="url(#6c3c6df978)"><g clip-path="url(#9589bcb3e9)"><g clip-path="url(#ca5310b949)"><path fill="#6a994e" d="M 129.933594 97.585938 L 133.957031 89.453125 C 134.054688 89.359375 134.054688 89.359375 134.152344 89.457031 C 134.246094 89.558594 134.246094 89.558594 134.144531 89.652344 L 130.121094 97.785156 C 130.023438 97.878906 130.023438 97.878906 129.929688 97.777344 C 129.929688 97.777344 129.832031 97.679688 129.933594 97.585938 Z M 129.933594 97.585938 " fill-opacity="1" fill-rule="nonzero"/></g></g></g><g clip-path="url(#800943f36e)"><g clip-path="url(#bae3353850)"><g clip-path="url(#450e5e4aa9)"><path fill="#6a994e" d="M 169.3125 171.332031 L 175.222656 208.191406 C 175.71875 211.117188 176.117188 214.136719 176.613281 217.0625 C 176.695312 217.550781 176.785156 217.84375 176.683594 217.9375 C 176.480469 218.320312 176.378906 218.414062 176.296875 217.925781 C 175.859375 216.265625 175.421875 214.601562 175.179688 212.945312 C 171.765625 196.929688 169.042969 180.640625 166.898438 164.371094 C 165.707031 155.308594 164.609375 146.347656 163.417969 137.289062 C 163.109375 134.5625 162.414062 131.824219 161.519531 129.273438 C 161.519531 129.273438 161.519531 129.273438 161.617188 129.179688 C 161.617188 129.179688 161.617188 129.179688 161.710938 129.28125 C 163.96875 135.070312 164.878906 140.4375 165.855469 146.871094 C 166.882812 154.957031 167.902344 163.234375 169.3125 171.332031 Z M 169.3125 171.332031 " fill-opacity="1" fill-rule="nonzero"/></g></g></g></svg>